<?xml version="1.0" encoding="UTF-8" standalone="no"?>
<!-- Created with Inkscape (http://www.inkscape.org/) -->

<svg
   xmlns:dc="http://purl.org/dc/elements/1.1/"
   xmlns:cc="http://creativecommons.org/ns#"
   xmlns:rdf="http://www.w3.org/1999/02/22-rdf-syntax-ns#"
   xmlns:svg="http://www.w3.org/2000/svg"
   xmlns="http://www.w3.org/2000/svg"
   xmlns:sodipodi="http://sodipodi.sourceforge.net/DTD/sodipodi-0.dtd"
   xmlns:inkscape="http://www.inkscape.org/namespaces/inkscape"
   width="339.08353mm"
   height="181.05788mm"
   viewBox="0 0 339.08353 181.05788"
   version="1.1"
   id="svg8"
   sodipodi:docname="hilltop.svg"
   inkscape:version="0.92.4 (5da689c313, 2019-01-14)"
   preserveAspectRatio="none">
  <defs
     id="defs2" />
  <sodipodi:namedview
     id="base"
     pagecolor="#ffffff"
     bordercolor="#666666"
     borderopacity="1.0"
     inkscape:pageopacity="0.0"
     inkscape:pageshadow="2"
     inkscape:zoom="0.35"
     inkscape:cx="994.84318"
     inkscape:cy="216.44234"
     inkscape:document-units="px"
     inkscape:current-layer="layer1"
     showgrid="false"
     inkscape:window-width="1857"
     inkscape:window-height="1057"
     inkscape:window-x="-8"
     inkscape:window-y="-8"
     inkscape:window-maximized="1"
     fit-margin-top="0"
     fit-margin-left="0"
     fit-margin-right="0"
     fit-margin-bottom="0" />
  <metadata
     id="metadata5">
    <rdf:RDF>
      <cc:Work
         rdf:about="">
        <dc:format>image/svg+xml</dc:format>
        <dc:type
           rdf:resource="http://purl.org/dc/dcmitype/StillImage" />
        <dc:title></dc:title>
      </cc:Work>
    </rdf:RDF>
  </metadata>
  <g
     inkscape:label="Layer 1"
     inkscape:groupmode="layer"
     id="layer1"
     transform="translate(-1.3034807,-25.042488)">
    <path
       inkscape:connector-curvature="0"
       id="path1436"
       d="m 185.62734,52.839114 a 17.575893,16.81994 0 0 0 -17.57619,16.820139 17.575893,16.81994 0 0 0 0.0372,0.999443 17.197916,11.150298 0 0 0 -12.51035,10.717689 17.197916,11.150298 0 0 0 17.19792,11.150229 17.197916,11.150298 0 0 0 15.43264,-6.245101 17.575893,16.81994 0 0 0 4.40438,-1.209249 35.71875,11.150298 0 0 0 0.38447,0.0398 17.575893,16.81994 0 0 0 14.55259,7.414551 17.575893,16.81994 0 0 0 15.18047,-8.3752 35.71875,11.150298 0 0 0 17.51418,-9.57824 35.71875,11.150298 0 0 0 -19.48718,-9.93222 17.575893,16.81994 0 0 0 -13.20747,-5.754158 17.575893,16.81994 0 0 0 -7.25433,1.522389 17.575893,16.81994 0 0 0 -14.66837,-7.570071 z"
       style="opacity:0.5;fill:#ffffff;fill-opacity:1;stroke:none;stroke-width:1.32291663;stroke-linecap:butt;stroke-linejoin:miter;stroke-miterlimit:4;stroke-dasharray:none;stroke-dashoffset:1;stroke-opacity:1;paint-order:normal" />
    <path
       inkscape:connector-curvature="0"
       id="path1438"
       d="M 212.02202,135.70796 A 83.427115,182.63679 79.869211 0 0 1.4497576,206.10037 H 339.68485 A 83.427115,182.63679 79.869211 0 0 212.02202,135.70796 Z"
       style="opacity:1;fill:#0be881;fill-opacity:1;stroke:none;stroke-width:1.32291663;stroke-linecap:butt;stroke-linejoin:miter;stroke-miterlimit:4;stroke-dasharray:none;stroke-dashoffset:1;stroke-opacity:1;paint-order:normal" />
    <path
       style="opacity:0.5;fill:#ffffff;fill-opacity:1;stroke:none;stroke-width:1.32291663;stroke-linecap:butt;stroke-linejoin:miter;stroke-miterlimit:4;stroke-dasharray:none;stroke-dashoffset:1;stroke-opacity:1;paint-order:normal"
       d="m 287.40382,53.925795 a 6.9048141,6.6078325 0 0 1 6.90493,6.60791 6.9048141,6.6078325 0 0 1 -0.0145,0.392639 6.756323,4.3804734 0 0 1 4.91479,4.210521 6.756323,4.3804734 0 0 1 -6.75632,4.38045 6.756323,4.3804734 0 0 1 -6.06282,-2.453431 6.9048141,6.6078325 0 0 1 -1.73029,-0.47507 14.032364,4.3804734 0 0 1 -0.15105,0.01561 6.9048141,6.6078325 0 0 1 -5.71709,2.912862 6.9048141,6.6078325 0 0 1 -5.96376,-3.290261 14.032364,4.3804734 0 0 1 -6.88057,-3.76288 14.032364,4.3804734 0 0 1 7.65569,-3.90194 6.9048141,6.6078325 0 0 1 5.18864,-2.26056 6.9048141,6.6078325 0 0 1 2.84993,0.59808 6.9048141,6.6078325 0 0 1 5.76254,-2.973959 z"
       id="path1440"
       inkscape:connector-curvature="0" />
    <path
       inkscape:connector-curvature="0"
       id="path1442"
       d="m 225.18984,136.39225 -12.53838,-32.30448 33.85654,-16.948514 36.02251,16.661954 -16.35617,36.8104 z"
       style="fill:#ff5e57;fill-opacity:1;stroke:none;stroke-width:0.26458332px;stroke-linecap:butt;stroke-linejoin:miter;stroke-opacity:1" />
    <rect
       transform="rotate(-32.132938)"
       y="199.75887"
       x="119.67586"
       height="9.0714283"
       width="45.357143"
       id="rect1444"
       style="opacity:1;fill:#1e272e;fill-opacity:1;stroke:none;stroke-width:1.32291663;stroke-linecap:butt;stroke-linejoin:miter;stroke-miterlimit:4;stroke-dasharray:none;stroke-dashoffset:1;stroke-opacity:1;paint-order:normal" />
    <rect
       style="opacity:1;fill:#1e272e;fill-opacity:1;stroke:none;stroke-width:1.32291663;stroke-linecap:butt;stroke-linejoin:miter;stroke-miterlimit:4;stroke-dasharray:none;stroke-dashoffset:1;stroke-opacity:1;paint-order:normal"
       id="rect1446"
       width="45.357143"
       height="9.0714283"
       x="256.48996"
       y="26.98476"
       transform="matrix(0.89632623,0.44339518,0.44339518,-0.89632623,0,0)" />
    <rect
       style="opacity:1;fill:#ffffff;fill-opacity:1;stroke:#ffffff;stroke-width:1.32569361;stroke-linecap:butt;stroke-linejoin:miter;stroke-miterlimit:4;stroke-dasharray:none;stroke-dashoffset:1;stroke-opacity:1;paint-order:normal"
       id="rect1448"
       width="19.484158"
       height="9.0628672"
       x="-120.08717"
       y="240.76572"
       transform="matrix(-0.01865864,-0.99982591,0.99734675,0.07279735,0,0)" />
    <rect
       style="opacity:1;fill:#1e272e;fill-opacity:1;stroke:#ffffff;stroke-width:1.32358825;stroke-linecap:butt;stroke-linejoin:miter;stroke-miterlimit:4;stroke-dasharray:none;stroke-dashoffset:1;stroke-opacity:1;paint-order:normal"
       id="rect1450"
       width="12.119438"
       height="10.099459"
       x="-108.23318"
       y="266.67099"
       transform="matrix(0.10107474,-0.99487884,0.99842126,0.05616925,0,0)" />
    <rect
       transform="matrix(-0.10328225,-0.99465209,0.99785105,-0.06552308,0,0)"
       y="213.77013"
       x="-136.83623"
       height="9.2708416"
       width="12.154725"
       id="rect1452"
       style="opacity:1;fill:#1e272e;fill-opacity:1;stroke:#ffffff;stroke-width:1.3233918;stroke-linecap:butt;stroke-linejoin:miter;stroke-miterlimit:4;stroke-dasharray:none;stroke-dashoffset:1;stroke-opacity:1;paint-order:normal" />
    <ellipse
       ry="14.699823"
       rx="14.699824"
       cy="81.59745"
       cx="318.01788"
       id="ellipse1454"
       style="opacity:1;fill:#ffdd59;fill-opacity:1;stroke:#ffdd59;stroke-width:1.32291663;stroke-linecap:butt;stroke-linejoin:miter;stroke-miterlimit:4;stroke-dasharray:none;stroke-dashoffset:1;stroke-opacity:1;paint-order:normal" />
    <rect
       transform="matrix(-0.44879816,0.89363315,0.89896249,0.43802562,0,0)"
       y="290.41055"
       x="-48.48259"
       height="3.9090748"
       width="19.366867"
       id="rect1456"
       style="opacity:1;fill:#1e272e;fill-opacity:1;stroke:none;stroke-width:1.32296443;stroke-linecap:butt;stroke-linejoin:miter;stroke-miterlimit:4;stroke-dasharray:none;stroke-dashoffset:1;stroke-opacity:1;paint-order:normal" />
  </g>
</svg>
